<svg width="52" height="52" fill="none" xmlns="http://www.w3.org/2000/svg">
    <rect x="1" y="1" width="50" height="50" rx="25" fill="url(#prefix__paint0_linear)" stroke="#fff" stroke-width="2"/>
    <path fill-rule="evenodd" clip-rule="evenodd" d="M37.945 27.2h3.613c.809 0 1.677-.342 2.243-1.084.588-.771.727-1.811.374-2.956-.349-1.132-.94-2.524-1.768-3.657-.807-1.103-2.005-2.177-3.591-2.177H16.334c-1.924 0-3.341 1.58-4.204 3.169-.9 1.656-1.436 3.731-1.436 5.485 0 1.732.487 3.934 1.38 5.728.858 1.722 2.31 3.476 4.417 3.476h16.058c4.547 0 5.31-6.987 5.396-7.985zm-24.027-5.726c-.745 1.373-1.187 3.113-1.187 4.506 0 1.414.413 3.302 1.165 4.813.787 1.581 1.725 2.345 2.595 2.345h12.1c-1.366-1.846-1.995-4.503-1.995-5.192 0-.708.391-2.674 3.603-2.674.231 0 .464-.02.697-.056.264-.069 1.224-.368 1.927-1.242.381-.474.493-.914.62-1.414.148-.58.316-1.24.947-2.126.319-.448.652-.795.968-1.062H16.334c-.74 0-1.633.662-2.416 2.102zm20.233 4.243c-.374.44-.737.782-1.054.931-1.41.67-2.545.433-2.545.433s-.157 3.107 1.801 3.107c1.776 0 1.845-3.752 1.843-4.45l-.045-.021z" fill="#fff"/>
    <defs>
        <linearGradient id="prefix__paint0_linear" x1="1.379" y1="1" x2="1.379" y2="50.243" gradientUnits="userSpaceOnUse">
            <stop stop-color="#1B9E00"/>
            <stop offset="1" stop-color="#1C8007"/>
        </linearGradient>
    </defs>
</svg>
