<svg width="46" height="24" viewBox="0 0 46 24" fill="none" xmlns="http://www.w3.org/2000/svg">
    <path fill-rule="evenodd" clip-rule="evenodd" d="M36.7805 13.2687H41.6564C42.748 13.2687 43.9207 12.8096 44.6839 11.8134C45.478 10.7768 45.6661 9.37851 45.1896 7.84C44.7185 6.31925 43.9206 4.4482 42.8023 2.9255C41.7133 1.44271 40.0971 0 37.9559 0H7.61234C5.01588 0 3.10314 2.12343 1.93875 4.25814C0.724615 6.48406 0 9.273 0 11.63C0 13.9587 0.658001 16.918 1.86317 19.3283C3.0207 21.6434 4.98021 24 7.82379 24H29.4978C35.634 24 36.6646 14.6095 36.7805 13.2687ZM4.352 5.57446C3.34587 7.41903 2.7489 9.75784 2.7489 11.63C2.7489 13.5302 3.30676 16.0688 4.32186 18.099C5.38459 20.2244 6.64974 21.2511 7.82379 21.2511H24.1555C22.3116 18.7701 21.4626 15.198 21.4626 14.2731C21.4626 13.3216 21.9912 10.6784 26.326 10.6784C26.6383 10.6784 26.9522 10.6521 27.2659 10.6032C27.6226 10.5111 28.919 10.1087 29.8678 8.93392C30.3822 8.29715 30.5334 7.70576 30.7053 7.0336C30.9044 6.25492 31.1312 5.36784 31.9824 4.17621C32.4123 3.57428 32.8617 3.10834 33.2884 2.7489H7.61234C6.61407 2.7489 5.40787 3.63869 4.352 5.57446ZM31.6594 11.2764C31.1552 11.8678 30.6646 12.3271 30.2379 12.5286C28.3348 13.4273 26.8018 13.1101 26.8018 13.1101C26.8018 13.1101 26.5903 17.2863 29.2335 17.2863C31.6306 17.2863 31.7233 12.2429 31.7198 11.3038L31.6594 11.2764Z" fill="white"/>
</svg>
